<svg 
	xmlns="http://www.w3.org/2000/svg"
	fill="#fff"
	viewBox="0 0 330 330">
		<g>
			<path d="M154.389,255.602c0.351,0.351,0.719,0.683,1.103,0.998c0.169,0.138,0.347,0.258,0.52,0.388 c0.218,0.164,0.432,0.333,0.659,0.484c0.212,0.142,0.432,0.265,0.649,0.395c0.202,0.121,0.4,0.248,0.608,0.359 c0.223,0.12,0.453,0.221,0.681,0.328c0.215,0.102,0.427,0.21,0.648,0.301c0.223,0.092,0.45,0.167,0.676,0.247 c0.236,0.085,0.468,0.175,0.709,0.248c0.226,0.068,0.456,0.119,0.684,0.176c0.246,0.062,0.489,0.131,0.739,0.181 c0.263,0.052,0.529,0.083,0.794,0.121c0.219,0.031,0.435,0.073,0.658,0.095c0.492,0.048,0.986,0.075,1.48,0.075 c0.494,0,0.988-0.026,1.479-0.075c0.226-0.022,0.444-0.064,0.667-0.096c0.262-0.037,0.524-0.068,0.784-0.12 c0.255-0.05,0.504-0.121,0.754-0.184c0.223-0.057,0.448-0.105,0.669-0.172c0.246-0.075,0.483-0.167,0.724-0.253 c0.221-0.08,0.444-0.152,0.662-0.242c0.225-0.093,0.44-0.202,0.659-0.306c0.225-0.106,0.452-0.206,0.672-0.324 c0.21-0.112,0.408-0.239,0.611-0.361c0.217-0.13,0.437-0.252,0.648-0.394c0.222-0.148,0.431-0.314,0.644-0.473 c0.179-0.134,0.362-0.258,0.536-0.4c0.365-0.3,0.714-0.617,1.049-0.949c0.016-0.016,0.034-0.028,0.049-0.044l70.002-69.998 c5.858-5.858,5.858-15.355,0-21.213c-5.857-5.857-15.355-5.858-21.213-0.001l-44.396,44.393V25c0-8.284-6.716-15-15-15 c-8.284,0-15,6.716-15,15v183.785l-44.392-44.391c-5.857-5.858-15.355-5.858-21.213,0c-5.858,5.858-5.858,15.355,0,21.213 L154.389,255.602z"></path><path d="M315,160c-8.284,0-15,6.716-15,15v115H30V175c0-8.284-6.716-15-15-15c-8.284,0-15,6.716-15,15v130 c0,8.284,6.716,15,15,15h300c8.284,0,15-6.716,15-15V175C330,166.716,323.284,160,315,160z"></path>
		</g>
</svg>