<?xml version="1.0" encoding="UTF-8" standalone="no"?>
<svg
  xmlns="http://www.w3.org/2000/svg"
  fill="none"
  stroke="#000000"
  viewBox="0 0 24 24">
  <g id="SVGRepo_bgCarrier" stroke-width="0"></g>
  <g id="SVGRepo_tracerCarrier" stroke-linecap="round" stroke-linejoin="round"></g>
  <g id="SVGRepo_iconCarrier">
    <path d="M7 2C3.31333 2 1 5.21475 1 8.5C1 11.8412 2.67415 14.6994 4.77151 16.9297C6.8721 19.1634 9.47698 20.8565 11.5528 21.8944C11.8343 22.0352 12.1657 22.0352 12.4472 21.8944C14.523 20.8565 17.1279 19.1634 19.2285 16.9297C21.3259 14.6994 23 11.8412 23 8.5C23 5.22013 20.7289 2 17 2C15.275 2 14.0531 2.47979 13.1186 3.20977C12.6785 3.55357 12.311 3.95011 11.9974 4.33639C11.6802 3.94929 11.3091 3.55266 10.8649 3.2079C9.92877 2.48125 8.70883 2 7 2Z" fill="#f90"></path>
  </g>
</svg>