<?xml version="1.0" encoding="UTF-8" standalone="no"?>
<svg xmlns="http://www.w3.org/2000/svg" viewBox="0 0 24 24" aria-hidden="true">
	<g class="copy">
		<path d="M6.11 4.25v1.86H4.25C3.01 6.11 2 7.12 2 8.36v11.39C2 20.99 3.01 22 4.25 22h11.39c1.24 0 2.25-1.01 2.25-2.25v-1.86h1.86c1.24 0 2.25-1.01 2.25-2.25V4.25C22 3.01 20.99 2 19.75 2H8.36C7.12 2 6.11 3.01 6.11 4.25zm9.53 16.25H4.25c-.413 0-.75-.337-.75-.75V8.36c0-.412.337-.75.75-.75h11.39c.412 0 .75.338.75.75v11.39c0 .413-.338.75-.75.75zm4.11-17c.413 0 .75.337.75.75v11.39c0 .412-.337.75-.75.75h-1.86V8.36c0-1.24-1.01-2.25-2.25-2.25H7.61V4.25c0-.413.338-.75.75-.75h11.39z"></path>
	</g>
</svg>